<?xml version="1.0" standalone="no"?>
<!DOCTYPE svg PUBLIC "-//W3C//DTD SVG 20010904//EN"
 "http://www.w3.org/TR/2001/REC-SVG-20010904/DTD/svg10.dtd">
<svg version="1.0" xmlns="http://www.w3.org/2000/svg"
 width="700.000000pt" height="700.000000pt" viewBox="0 0 700.000000 700.000000"
 preserveAspectRatio="xMidYMid meet">
<metadata>
Created by potrace 1.11, written by Peter Selinger 2001-2013
</metadata>
<g transform="translate(0.000000,700.000000) scale(0.100000,-0.100000)"
fill="#000000" stroke="none">
<path d="M0 3500 l0 -3500 3500 0 3500 0 0 3500 0 3500 -3500 0 -3500 0 0
-3500z m3671 3116 c70 -4 137 -9 150 -11 13 -2 46 -7 73 -10 82 -9 239 -36
249 -42 9 -5 3 -194 -9 -298 -30 -259 -134 -595 -261 -848 -105 -210 -305
-504 -438 -643 -154 -162 -244 -249 -329 -319 -27 -22 -54 -44 -60 -50 -70
-64 -284 -209 -437 -297 -215 -124 -577 -278 -738 -313 -9 -2 -50 -13 -91 -24
-41 -11 -120 -29 -175 -40 -89 -18 -125 -24 -225 -37 -103 -13 -267 -18 -605
-18 l-390 -1 1 40 c1 47 12 159 18 195 2 14 10 59 16 100 15 98 73 334 106
435 265 811 839 1478 1598 1854 208 103 423 186 586 225 8 2 44 12 80 21 36 9
76 19 90 21 14 3 59 11 100 19 41 8 102 17 135 20 33 4 71 9 85 11 14 3 77 7
140 10 63 3 116 7 117 8 2 2 67 0 214 -8z m955 -201 c199 -79 327 -143 541
-271 50 -29 273 -189 303 -216 14 -13 50 -44 80 -69 122 -103 278 -267 399
-418 72 -91 221 -303 221 -315 0 -2 19 -35 42 -72 35 -59 104 -197 173 -349
82 -180 184 -554 211 -775 3 -30 8 -64 10 -75 8 -40 18 -243 18 -360 -1 -288
-31 -522 -101 -785 -39 -148 -103 -334 -151 -440 -11 -25 -33 -74 -49 -110
-44 -97 -162 -304 -228 -400 -161 -234 -298 -390 -524 -600 -96 -88 -308 -242
-460 -334 -175 -106 -531 -271 -603 -279 l-22 -2 0 2958 c-1 2401 1 2957 12
2957 7 0 64 -20 128 -45z m-3351 -3098 c28 -4 75 -9 105 -12 49 -4 100 -12
210 -30 313 -53 725 -206 1035 -385 133 -77 398 -257 425 -289 3 -3 30 -26 60
-51 349 -284 660 -692 842 -1104 39 -89 123 -328 131 -376 3 -14 12 -54 21
-90 8 -36 18 -78 21 -95 3 -16 7 -39 9 -51 10 -51 26 -208 31 -312 3 -70 1
-82 -13 -86 -25 -7 -122 -25 -162 -30 -38 -5 -91 -12 -160 -22 -95 -13 -554
-12 -665 2 -177 22 -287 41 -415 73 -47 12 -92 23 -100 25 -80 20 -306 102
-420 153 -60 27 -233 115 -283 145 -26 15 -50 28 -52 28 -9 0 -289 192 -305
210 -3 3 -41 34 -85 69 -113 90 -335 316 -439 446 -315 393 -524 836 -625
1327 -16 79 -32 170 -36 203 -3 33 -8 69 -10 80 -2 11 -7 56 -10 101 l-6 81
423 -2 c233 -1 446 -5 473 -8z"/>
</g>
</svg>
