<svg enable-background="new 0 0 97.16 97.16" version="1.1" viewBox="0 0 97.16 97.16" xml:space="preserve" xmlns="http://www.w3.org/2000/svg"><path d="M48.58,0C21.793,0,0,21.793,0,48.58s21.793,48.58,48.58,48.58s48.58-21.793,48.58-48.58S75.367,0,48.58,0z M48.58,86.823    c-21.087,0-38.244-17.155-38.244-38.243S27.493,10.337,48.58,10.337S86.824,27.492,86.824,48.58S69.667,86.823,48.58,86.823z"/><path d="m73.898 47.08h-21.832v-26.25c0-2.209-1.791-4-4-4s-4 1.791-4 4v30.25c0 2.209 1.791 4 4 4h25.832c2.209 0 4-1.791 4-4s-1.791-4-4-4z"/></svg>
