<svg xmlns="http://www.w3.org/2000/svg" viewBox="0 0 26.2 28.2"><title>phone</title><path d="M14.61,20.63a26.56,26.56,0,0,1-4.3-3.84,27.33,27.33,0,0,1-3.55-5.34c.94-.87,1.87-1.76,2.81-2.64.32-.32.12-.79,0-1.24S8.88,3.85,8.78,3,8.6,1.6,7.42,1.6H2.75C2.33,1.6,1.6,1.87,1.6,3A24.28,24.28,0,0,0,7,18.94Q12,25.49,22.55,26.59c1.15.12,1.5-.57,1.54-1L24.58,21c.13-1.16-.45-1.29-1.28-1.48s-4.05-1.08-4.49-1.25-.89-.41-1.25-.13Zm.46-2.48h0l1.48-1.24a2.19,2.19,0,0,1,1.74-.46,3.75,3.75,0,0,1,.94.28h0l.13.05c.33.13,3.47,1,4.27,1.18,1.8.41,2.73,1.22,2.51,3.21l-.48,4.6a2.79,2.79,0,0,1-3.3,2.41C15,27.41,9.37,24.66,5.72,20A25.88,25.88,0,0,1,0,3,2.78,2.78,0,0,1,2.75,0H7.42c2,0,2.72,1,2.95,2.82.1.8.64,4,.74,4.31l0,.14h0a4,4,0,0,1,.19,1A2.2,2.2,0,0,1,10.69,10L8.74,11.78a27.62,27.62,0,0,0,2.78,4,22.41,22.41,0,0,0,3,2.84l.51-.43Z"/></svg>