<svg xmlns="http://www.w3.org/2000/svg" viewBox="0 0 126.57 126.57"><title>phone-in-circle</title><path d="M67.25,71.79h0c1.53-1.36,2.53-2.23,2.84-2.49a4.1,4.1,0,0,1,3.35-.91,6.37,6.37,0,0,1,1.82.57h0l.26.11c.62.25,6.62,2,8.16,2.35,3.41.82,5.12,2.37,4.73,6.19l-.93,9.2c-.29,2.83-2.68,5-6.26,4.64-14.19-1.54-24.9-7-31.86-16.42-7.27-9.23-10.9-20.51-10.9-33.7,0-3.61,2.36-5.83,5.19-5.83h9c3.84,0,5.15,1.91,5.57,5.48.2,1.62,1.24,8,1.42,8.67l.08.28v0a7.3,7.3,0,0,1,.35,1.85A4.18,4.18,0,0,1,58.89,55c-.36.38-1.63,1.63-3.86,3.81A55.44,55.44,0,0,0,60.47,67a43.9,43.9,0,0,0,5.82,5.68Zm-.86,4.77a50.81,50.81,0,0,1-8.22-7.68A56.11,56.11,0,0,1,51.36,58.2c3.17-3.1,5-4.86,5.38-5.29.62-.63.24-1.58,0-2.48s-1.31-7.44-1.51-9.1-.33-2.83-2.59-2.83h-9c-.8,0-2.19.54-2.19,2.83q0,18.81,10.25,31.85,9.74,13.11,29.84,15.29c2.2.24,2.86-1.13,2.94-2l.94-9.2c.23-2.32-.87-2.59-2.45-3s-7.76-2.15-8.6-2.5S72.72,71,72,71.58,66.39,76.56,66.39,76.56Z" fill="#011e41"/><path d="M63.28,0a63.29,63.29,0,1,0,63.29,63.28A63.28,63.28,0,0,0,63.28,0Zm0,3A60.29,60.29,0,1,1,3,63.28,60.28,60.28,0,0,1,63.28,3Z" fill="#001e44"/></svg>