<svg xmlns="http://www.w3.org/2000/svg"><symbol id="icon_arrow" viewBox="0 0 8.46 16"><path d="M8.46 8l-7-8L0 1.24 5.91 8 0 14.76 1.47 16z"/></symbol><symbol id="icon_calendar" viewBox="0 0 512 512"><path d="M452 40h-24V0h-40v40H124V0H84v40H60a60.07 60.07 0 00-60 60v352a60.07 60.07 0 0060 60h392a60.07 60.07 0 0060-60V100a60.07 60.07 0 00-60-60zm20 412a20 20 0 01-20 20H60a20 20 0 01-20-20V188h432zm0-304H40v-48a20 20 0 0120-20h24v40h40V80h264v40h40V80h24a20 20 0 0120 20z"/><path d="M76 230h40v40H76zm80 0h40v40h-40zm80 0h40v40h-40zm80 0h40v40h-40zm80 0h40v40h-40zM76 310h40v40H76zm80 0h40v40h-40zm80 0h40v40h-40zm80 0h40v40h-40zM76 390h40v40H76zm80 0h40v40h-40zm80 0h40v40h-40zm80 0h40v40h-40zm80-80h40v40h-40z"/></symbol><symbol id="icon_check" viewBox="0 0 15 11"><path d="M-.019 5.662l1.575-1.5L5.7 8.107l7.6-8.14 1.665 1.408-8.91 9.543-.242-.205-.263.25z"/><path d="M-.019 5.662l1.575-1.5L5.7 8.107l7.6-8.14 1.665 1.408-8.91 9.543-.242-.205-.263.25z"/></symbol><symbol id="icon_clock" viewBox="0 0 97.16 97.16"><path d="M48.58 0C21.793 0 0 21.793 0 48.58s21.793 48.58 48.58 48.58 48.58-21.793 48.58-48.58S75.367 0 48.58 0zm0 86.823c-21.087 0-38.244-17.155-38.244-38.243S27.493 10.337 48.58 10.337 86.824 27.492 86.824 48.58 69.667 86.823 48.58 86.823z"/><path d="M73.898 47.08H52.066V20.83a4 4 0 00-8 0v30.25a4 4 0 004 4h25.832a4 4 0 000-8z"/></symbol><symbol id="icon_cross" viewBox="0 0 30 30"><path d="M-.004 2.943L2.94 0 15 12.059 27.06-.001l2.943 2.944-12.06 12.06 12.06 12.059-2.944 2.944L15 17.946 2.94 30.007l-2.944-2.944 12.06-12.06z"/></symbol><symbol id="icon_mail" viewBox="0 0 28.11 20.26"><path d="M0 20.26V0h28.11v20.26zm1.6-1.6h24.91V1.6H1.6z"/><path d="M14.05 10.47l8.45-6.38 1 1.28-9.41 7.11-9.44-7.11 1-1.28z"/></symbol><symbol id="icon_message" viewBox="0 0 19.12 18.34"><path d="M0 8.22C0 3.78 4.33 0 9.46 0s9.45 3.78 9.45 8.22a6.87 6.87 0 01-2.28 5.15l2.49 5-6.55-2.46C6.68 18.26 0 14.14 0 8.22zM14.64 13l.5-.41a5.34 5.34 0 002.17-4.32c0-3.5-3.57-6.62-7.85-6.62S1.6 4.72 1.6 8.22c0 4.84 5.7 8.26 10.62 6.07l.3-.13 3.35 1.25z"/></symbol><symbol id="icon_phone-in-circle" viewBox="0 0 126.57 126.57"><path d="M67.25 71.79c1.53-1.36 2.53-2.23 2.84-2.49a4.1 4.1 0 013.35-.91 6.37 6.37 0 011.82.57l.26.11c.62.25 6.62 2 8.16 2.35 3.41.82 5.12 2.37 4.73 6.19l-.93 9.2c-.29 2.83-2.68 5-6.26 4.64-14.19-1.54-24.9-7-31.86-16.42-7.27-9.23-10.9-20.51-10.9-33.7 0-3.61 2.36-5.83 5.19-5.83h9c3.84 0 5.15 1.91 5.57 5.48.2 1.62 1.24 8 1.42 8.67l.08.28a7.3 7.3 0 01.35 1.85A4.18 4.18 0 0158.89 55c-.36.38-1.63 1.63-3.86 3.81A55.44 55.44 0 0060.47 67a43.9 43.9 0 005.82 5.68zm-.86 4.77a50.81 50.81 0 01-8.22-7.68 56.11 56.11 0 01-6.81-10.68c3.17-3.1 5-4.86 5.38-5.29.62-.63.24-1.58 0-2.48s-1.31-7.44-1.51-9.1-.33-2.83-2.59-2.83h-9c-.8 0-2.19.54-2.19 2.83q0 18.81 10.25 31.85 9.74 13.11 29.84 15.29c2.2.24 2.86-1.13 2.94-2l.94-9.2c.23-2.32-.87-2.59-2.45-3s-7.76-2.15-8.6-2.5-1.65-.77-2.37-.19-5.61 4.98-5.61 4.98z"/><path d="M63.28 0a63.29 63.29 0 1063.29 63.28A63.28 63.28 0 0063.28 0zm0 3A60.29 60.29 0 113 63.28 60.28 60.28 0 0163.28 3z"/></symbol><symbol id="icon_phone" viewBox="0 0 26.2 28.2"><path d="M14.61 20.63a26.56 26.56 0 01-4.3-3.84 27.33 27.33 0 01-3.55-5.34c.94-.87 1.87-1.76 2.81-2.64.32-.32.12-.79 0-1.24S8.88 3.85 8.78 3 8.6 1.6 7.42 1.6H2.75c-.42 0-1.15.27-1.15 1.4A24.28 24.28 0 007 18.94q5 6.55 15.55 7.65c1.15.12 1.5-.57 1.54-1l.49-4.59c.13-1.16-.45-1.29-1.28-1.48s-4.05-1.08-4.49-1.25-.89-.41-1.25-.13zm.46-2.48l1.48-1.24a2.19 2.19 0 011.74-.46 3.75 3.75 0 01.94.28l.13.05c.33.13 3.47 1 4.27 1.18 1.8.41 2.73 1.22 2.51 3.21l-.48 4.6a2.79 2.79 0 01-3.3 2.41C15 27.41 9.37 24.66 5.72 20A25.88 25.88 0 010 3a2.78 2.78 0 012.75-3h4.67c2 0 2.72 1 2.95 2.82.1.8.64 4 .74 4.31v.14a4 4 0 01.19 1 2.2 2.2 0 01-.61 1.73l-1.95 1.78a27.62 27.62 0 002.78 4 22.41 22.41 0 003 2.84l.51-.43z"/></symbol><symbol id="icon_user" viewBox="0 0 512 512"><path d="M437.02 330.98c-27.883-27.882-61.071-48.523-97.281-61.018C378.521 243.251 404 198.548 404 148.002c0-81.607-66.393-148-148-148s-148 66.393-148 148c0 50.548 25.479 95.251 64.262 121.96-36.21 12.495-69.398 33.136-97.281 61.018C26.629 379.333 0 443.62 0 512h40c0-119.1 96.897-216 216-216s216 96.897 216 216h40c0-68.38-26.629-132.67-74.98-181.02zM256 256c-59.551 0-108-48.448-108-108S196.449 40 256 40s108 48.448 108 108-48.449 108-108 108z"/></symbol></svg>