<svg xmlns="http://www.w3.org/2000/svg" viewBox="0 0 165.93 38.1"><title>logo</title><path d="M0,38.1H38.09V0H0ZM24.41,2.91a17,17,0,0,1,0,32.27ZM19,2.05a18.64,18.64,0,0,1,3.59.38c0,8.63-8.34,15.73-17,15.73H2.07A17.19,17.19,0,0,1,19,2.05ZM5.67,20c8.62,0,17,7.1,17,15.72a18.44,18.44,0,0,1-3.59.38A17,17,0,0,1,2.07,20h3.6Z" fill="#121441" fill-rule="evenodd"/><path d="M50.84,22.4V20h7.93V16.93H50.84V12.48h8.44V9.42H47.6V22.26c0,3.24,1.38,5.46,4.62,5.92l.19,0h.06c.33,0,.67.06,1,.06h6V25.22h-6a2.55,2.55,0,0,1-2.68-2.82Z" fill="#121441" fill-rule="evenodd"/><path d="M61.81,18.33v9.94h3.24V9.42H61.81Z" fill="#121441" fill-rule="evenodd"/><path d="M74.36,14.21a6.87,6.87,0,0,0-7.17,7.22v.11c0,4.3,3,7.07,7.25,7.07a7.38,7.38,0,0,0,5.76-2.45l-2-1.9a4.75,4.75,0,0,1-3.7,1.58c-2.42,0-4-1.41-4.13-3.59H81.07c.06-.54.06-1.14.06-1.14a6.62,6.62,0,0,0-6.77-6.9ZM70.5,20a3.66,3.66,0,0,1,3.86-3,3.26,3.26,0,0,1,3.45,3Z" fill="#121441" fill-rule="evenodd"/><path d="M90.25,17.11a4.62,4.62,0,0,1,3.48,1.5l2-2.09a7.25,7.25,0,1,0,0,9.78l-2-2.09a4.62,4.62,0,0,1-3.48,1.49A4.15,4.15,0,0,1,86,21.41a4.16,4.16,0,0,1,4.22-4.3Z" fill="#121441" fill-rule="evenodd"/><path d="M101,22.4h0V17.59h3V14.64h-3V9.42H97.76V22.59h0c.09,3.07,1.48,5.15,4.61,5.59l.19,0h.06a8.52,8.52,0,0,0,1,.06H104V25.22h-.33A2.55,2.55,0,0,1,101,22.4Z" fill="#121441" fill-rule="evenodd"/><path d="M109.9,16.67v-2h-3.22V28.27h3.22V21.1a3.42,3.42,0,0,1,3.68-3.65,6,6,0,0,1,1.35.14V14.45a6.41,6.41,0,0,0-1-.08,4.22,4.22,0,0,0-4.06,2.3Z" fill="#121441" fill-rule="evenodd"/><path d="M122.87,14.23a7.23,7.23,0,1,0,7.44,7.23,7.26,7.26,0,0,0-7.44-7.23Zm0,11.5a4.28,4.28,0,1,1,4.22-4.27,4.17,4.17,0,0,1-4.22,4.27Z" fill="#121441" fill-rule="evenodd"/><path d="M132.3,18V28.27h3.25V9.42H132.3Z" fill="#121441" fill-rule="evenodd"/><path d="M147.26,22.56a3,3,0,1,1-5.95,0V14.64H138v8.22c0,3.9,2.84,5.77,6.23,5.77s6.27-1.9,6.27-5.85V14.64h-3.27Z" fill="#121441" fill-rule="evenodd"/><path d="M162.81,23.91l-2-2.86,2.53-3.45,2.17-3h-3.54l-3,4.08-3-4.08h-3.51l2,2.76,2.69,3.68L154.37,25,152,28.27h3.49L159,23.46l3.46,4.81h3.49Z" fill="#121441" fill-rule="evenodd"/></svg>