<svg xmlns="http://www.w3.org/2000/svg" viewBox="0 0 512 512"><title>calendar</title><path d="M452,40H428V0H388V40H124V0H84V40H60A60.07,60.07,0,0,0,0,100V452a60.07,60.07,0,0,0,60,60H452a60.07,60.07,0,0,0,60-60V100A60.07,60.07,0,0,0,452,40Zm20,412a20,20,0,0,1-20,20H60a20,20,0,0,1-20-20V188H472Zm0-304H40V100A20,20,0,0,1,60,80H84v40h40V80H388v40h40V80h24a20,20,0,0,1,20,20Z" fill="#7d8b9d"/><rect fill="#7d8b9d" x="76" y="230" width="40" height="40"/><rect fill="#7d8b9d" x="156" y="230" width="40" height="40"/><rect fill="#7d8b9d" x="236" y="230" width="40" height="40"/><rect fill="#7d8b9d" x="316" y="230" width="40" height="40"/><rect fill="#7d8b9d" x="396" y="230" width="40" height="40"/><rect fill="#7d8b9d" x="76" y="310" width="40" height="40"/><rect fill="#7d8b9d" x="156" y="310" width="40" height="40"/><rect fill="#7d8b9d" x="236" y="310" width="40" height="40"/><rect fill="#7d8b9d" x="316" y="310" width="40" height="40"/><rect fill="#7d8b9d" x="76" y="390" width="40" height="40"/><rect fill="#7d8b9d" x="156" y="390" width="40" height="40"/><rect fill="#7d8b9d" x="236" y="390" width="40" height="40"/><rect fill="#7d8b9d" x="316" y="390" width="40" height="40"/><rect fill="#7d8b9d" x="396" y="310" width="40" height="40"/></svg>