<svg viewBox="0 0 106 40" xmlns="http://www.w3.org/2000/svg" xmlns:xlink="http://www.w3.org/1999/xlink"><path d="M10.845.062l2.392 6.113L.058 39.374h5.228l3.739-9.42h13.518l3.687 9.42h10.633L21.478.062H10.845zm-.026 25.373l5.013-12.629 4.942 12.629h-9.955zM51.357 21.797h12.431l1.824-4.594H51.357V4.795h15.591L68.827.062H41.402v39.312h25.952l1.879-4.734H51.357z" fill="#CF1430"></path><defs><path id="a" d="M-3.792-1.395h113v42.772h-113z"></path></defs><clipPath id="b"><use xlink:href="#a"></use></clipPath><path d="M89.51 21.797h6.561V35.1c-.785.215-1.684.342-2.636.341-8.845 0-11.433-8.198-11.433-15.45 0-6.958 2.221-15.196 10.771-15.196h9.113l1.878-4.733h-12.06c-11.711 0-19.977 8.093-19.977 19.929 0 11.69 7.939 19.929 20.25 19.929 6.133 0 10.109-1.169 13.381-2.311V17.203H91.334l-1.824 4.594z" clip-path="url(#b)" fill="#CF1430"></path></svg>